<svg xmlns="http://www.w3.org/2000/svg" width="34.974" height="33.803" viewBox="0 0 34.974 33.803"><defs><style>.a{fill:none;}.b{fill:#70c0fd;}</style></defs><path class="a" d="M0,0H34.974V33.8H0Z"/><path class="b" d="M14.4,3.933H6.256A3.116,3.116,0,0,0,3,6.867V27.4a3.116,3.116,0,0,0,3.256,2.933H14.4v2.933h3.256V1H14.4Zm0,22H6.256l8.14-8.8Zm14.651-22h-8.14V6.867h8.14V25.933l-8.14-8.8v13.2h8.14A3.116,3.116,0,0,0,32.3,27.4V6.867A3.116,3.116,0,0,0,29.047,3.933Z" transform="translate(-0.164 -0.232)"/></svg>