<svg xmlns="http://www.w3.org/2000/svg" width="30" height="30.423" viewBox="0 0 30 30.423"><defs><style>.a{fill:#70c0fd;}</style></defs><path class="a" d="M19.859,8.432a5.667,5.667,0,0,1,1.3,4.53,4.535,4.535,0,0,1-4.7,4.3H16.3v.794a1.3,1.3,0,1,1-2.609,0V17c0-1.091.457-2.381,2.772-2.381,1.272,0,1.924-.661,2.087-1.984a3.1,3.1,0,0,0-.685-2.447,3.857,3.857,0,0,0-3-1.058c-2.935,0-3.033,1.951-3.033,2.149a1.3,1.3,0,1,1-2.609,0c0-1.323,1.011-4.795,5.641-4.795A6.291,6.291,0,0,1,19.859,8.432ZM14.9,20.5a1.52,1.52,0,0,0-1.141.5,1.7,1.7,0,0,0-.489,1.157,1.562,1.562,0,0,0,.489,1.157,1.65,1.65,0,0,0,1.141.5,1.52,1.52,0,0,0,1.141-.5,1.7,1.7,0,0,0,.489-1.157A1.562,1.562,0,0,0,16.043,21,1.59,1.59,0,0,0,14.9,20.5ZM30,15.211A15.109,15.109,0,0,1,15,30.423,15.109,15.109,0,0,1,0,15.211,15.109,15.109,0,0,1,15,0,15.109,15.109,0,0,1,30,15.211Zm-2.609,0A12.474,12.474,0,0,0,15,2.645,12.474,12.474,0,0,0,2.609,15.211,12.474,12.474,0,0,0,15,27.777,12.474,12.474,0,0,0,27.391,15.211Z"/></svg>