<svg xmlns="http://www.w3.org/2000/svg" width="34.974" height="32.804" viewBox="0 0 34.974 32.804"><defs><style>.a{fill:none;}.b{fill:#70c0fd;}</style></defs><path class="a" d="M0,0H34.974V32.8H0Z"/><path class="b" d="M19.365,3A13.939,13.939,0,0,0,5.591,17.1H1l5.953,6.093.107.219L13.243,17.1H8.652A10.833,10.833,0,0,1,19.365,6.133,10.833,10.833,0,0,1,30.077,17.1,10.833,10.833,0,0,1,19.365,28.062a10.507,10.507,0,0,1-7.56-3.227L9.631,27.06a13.548,13.548,0,0,0,9.733,4.135A13.939,13.939,0,0,0,33.138,17.1,13.939,13.939,0,0,0,19.365,3Zm-1.53,7.832v7.832l6.55,3.979,1.1-1.9L20.13,17.489V10.832Z" transform="translate(-0.055 -0.695)"/></svg>