<svg xmlns="http://www.w3.org/2000/svg" width="32.718" height="26.894" viewBox="0 0 32.718 26.894"><defs><style>.a{fill:#e9426e;}</style></defs><path class="a" d="M35.63,13.142c-.117-.1-.117-.192-.234-.288L30.718,9.012a1.307,1.307,0,0,0-1.637,0,.82.82,0,0,0,0,1.345l2.69,2.209H25.221V2.96c0-.576-.468-.96-1.17-.96H4.17a.825.825,0,0,0-.468.1H3.585s-.117,0-.117.1l-.117.1h0c-.117.1-.234.192-.234.288v.1A.315.315,0,0,0,3,2.96V24.091a.859.859,0,0,0,.7.864L14.228,28.8a.825.825,0,0,0,.468.1,1,1,0,0,0,.585-.192.976.976,0,0,0,.585-.768V25.052h8.187c.7,0,1.17-.384,1.17-.96v-9.6h6.549L29.081,16.7a.82.82,0,0,0,0,1.345,1.307,1.307,0,0,0,1.637,0L35.4,14.2c.117-.1.234-.192.234-.288A.885.885,0,0,0,35.63,13.142ZM11.187,20.249c0,.576-.468.96-1.17.96s-1.17-.384-1.17-.96V16.407c0-.576.468-.96,1.17-.96s1.17.384,1.17.96Zm11.7-10.565V23.131H15.865V6.8a.859.859,0,0,0-.7-.864l-5.5-2.017H22.882Z" transform="translate(-3 -2)"/></svg>