<svg xmlns="http://www.w3.org/2000/svg" width="29.8" height="26.6" viewBox="0 0 29.8 26.6"><defs><style>.a{fill:#e26777;}.b{fill:#70c0fd;}</style></defs><g transform="translate(0 -80)"><g transform="translate(0 80)"><path class="a" d="M28.406,83.8H1.394C.625,83.8,0,82.913,0,81.9S.625,80,1.394,80H28.406c.769,0,1.394.887,1.394,1.9S29.175,83.8,28.406,83.8Z" transform="translate(0 -80)"/><path class="a" d="M28.406,227.8H1.394C.625,227.8,0,226.913,0,225.9S.625,224,1.394,224H28.406c.769,0,1.394.887,1.394,1.9S29.175,227.8,28.406,227.8Z" transform="translate(0 -212.6)"/><path class="a" d="M28.406,371.8H1.394C.625,371.8,0,370.913,0,369.9S.625,368,1.394,368H28.406c.769,0,1.394.887,1.394,1.9S29.175,371.8,28.406,371.8Z" transform="translate(0 -345.2)"/></g><g transform="translate(3.454 80)"><path class="b" d="M371.64,368H364.8l2.939,3.8h3.851a1.751,1.751,0,0,0,1.469-1.9A1.68,1.68,0,0,0,371.64,368Z" transform="translate(-346.762 -345.2)"/><path class="b" d="M238.26,224H222.4l2.939,3.8h12.87a1.751,1.751,0,0,0,1.469-1.9C239.678,224.887,239.07,224,238.26,224Z" transform="translate(-213.381 -212.6)"/><path class="b" d="M104.879,80H80l2.939,3.8h21.889a1.751,1.751,0,0,0,1.469-1.9A1.68,1.68,0,0,0,104.879,80Z" transform="translate(-80 -80)"/></g></g></svg>